<svg xmlns="http://www.w3.org/2000/svg" viewBox="0 0 512 512" width="100%" height="100%">
  <defs>
    <linearGradient id="logo-grad" x1="0%" y1="0%" x2="100%" y2="100%">
      <stop offset="0%" stop-color="#4f46e5" />
      <stop offset="100%" stop-color="#7c3aed" />
    </linearGradient>
  </defs>
  <rect width="512" height="512" rx="128" fill="url(#logo-grad)" />
  <g transform="translate(40, 40) scale(18)" stroke="#ffffff" stroke-width="1.8" stroke-linecap="round" stroke-linejoin="round" fill="none">
    <path d="M2.97 12.92A2 2 0 0 0 2 14.63v3.24a2 2 0 0 0 .97 1.71l3 1.8a2 2 0 0 0 2.06 0l3-1.8a2 2 0 0 0 .97-1.71v-3.24a2 2 0 0 0-.97-1.71l-3-1.8a2 2 0 0 0-2.06 0L2.97 12.92z"/>
    <path d="m7 16.5-4.5-2.7"/>
    <path d="m7 16.5 4.5-2.7"/>
    <path d="M7 16.5v5.5"/>
    <path d="M12.97 2.92A2 2 0 0 0 12 4.63v3.24a2 2 0 0 0 .97 1.71l3 1.8a2 2 0 0 0 2.06 0l3-1.8a2 2 0 0 0 .97-1.71V4.63a2 2 0 0 0-.97-1.71l-3-1.8a2 2 0 0 0-2.06 0l-3 1.8z"/>
    <path d="m17 6.5-4.5-2.7"/>
    <path d="m17 6.5 4.5-2.7"/>
    <path d="M17 6.5v5.5"/>
    <path d="M2.97 4.92A2 2 0 0 0 2 6.63v3.24a2 2 0 0 0 .97 1.71l3 1.8a2 2 0 0 0 2.06 0l3-1.8A2 2 0 0 0 12 9.87V6.63a2 2 0 0 0-.97-1.71l-3-1.8a2 2 0 0 0-2.06 0l-3 1.8z"/>
    <path d="m7 8.5-4.5-2.7"/>
    <path d="m7 8.5 4.5-2.7"/>
    <path d="M7 8.5v5.5"/>
  </g>
</svg>