<svg xmlns="http://www.w3.org/2000/svg" viewBox="0 0 512 512" width="100%" height="100%">
  <defs>
    <linearGradient id="brand-grad" x1="0%" y1="0%" x2="0%" y2="100%">
      <stop offset="0%" stop-color="#8b5cf6" />
      <stop offset="100%" stop-color="#6d28d9" />
    </linearGradient>
  </defs>
  <!-- Squircle background -->
  <rect width="512" height="512" rx="160" fill="url(#brand-grad)" />
  <!-- Symmetric Boxes Icon -->
  <g transform="translate(64, 64) scale(16)" stroke="#ffffff" stroke-width="2.2" stroke-linecap="round" stroke-linejoin="round" fill="none">
    <!-- Top Cube -->
    <path d="M7.97 2.92A2 2 0 0 0 7 4.63v3.24a2 2 0 0 0 .97 1.71l3 1.8a2 2 0 0 0 2.06 0l3-1.8a2 2 0 0 0 .97-1.71V4.63a2 2 0 0 0-.97-1.71l-3-1.8a2 2 0 0 0-2.06 0l-3 1.8z"/>
    <path d="m12 6.5-4.5-2.7"/>
    <path d="m12 6.5 4.5-2.7"/>
    <path d="M12 6.5v5.5"/>

    <!-- Bottom Left Cube -->
    <path d="M2.97 11.42A2 2 0 0 0 2 13.13v3.24a2 2 0 0 0 .97 1.71l3 1.8a2 2 0 0 0 2.06 0l3-1.8a2 2 0 0 0 .97-1.71v-3.24a2 2 0 0 0-.97-1.71l-3-1.8a2 2 0 0 0-2.06 0l-3 1.8z"/>
    <path d="m7 15-4.5-2.7"/>
    <path d="m7 15 4.5-2.7"/>
    <path d="M7 15v5.5"/>

    <!-- Bottom Right Cube -->
    <path d="M12.97 11.42A2 2 0 0 0 12 13.13v3.24a2 2 0 0 0 .97 1.71l3 1.8a2 2 0 0 0 2.06 0l3-1.8a2 2 0 0 0 .97-1.71v-3.24a2 2 0 0 0-.97-1.71l-3-1.8a2 2 0 0 0-2.06 0l-3 1.8z"/>
    <path d="m17 15-4.5-2.7"/>
    <path d="m17 15 4.5-2.7"/>
    <path d="M17 15v5.5"/>
  </g>
</svg>